<svg width="150" height="150" viewBox="0 0 150 150" fill="none" xmlns="http://www.w3.org/2000/svg">
<path d="M52.2176 103.14C42.6876 102.3 37.3976 97.14 34.1076 90.43C31.6576 85.43 31.5476 79.72 32.7376 74.25C36.2276 58.25 54.4376 50.11 70.3976 50.15C82.0376 50.15 90.9276 51.15 98.7776 45C103.348 52 113.608 64.63 115.628 69.29C117.681 73.7934 118.758 78.6805 118.788 83.63C118.698 89.8 114.998 96.8 110.418 99.85C104.138 104.03 100.138 103.66 93.6776 103.85C79.8548 104.35 66.0151 104.113 52.2176 103.14Z" fill="#E9F6FF" stroke="#737381" stroke-width="4" stroke-linecap="round" stroke-linejoin="round"/>
<path d="M59.5408 71.7565C58.1016 71.6161 56.887 71.4467 55.6157 70.7336C54.9768 70.3726 53.8537 69.4701 53.4351 68.8617C52.1965 67.0611 51.7276 65.2605 52.1485 63.1702C52.5694 61.08 53.8123 59.2259 55.3758 57.822C56.7867 56.5473 59.0611 55.5935 61.6996 55.8386C63.8083 56.0258 65.4067 56.6832 66.6627 58.1206C68.2561 59.9624 69.0899 62.363 68.9894 64.8193C68.9677 65.5967 68.8089 66.3637 68.5206 67.0834C68.2074 67.7757 67.7745 68.4046 67.2427 68.9397C65.7297 70.5056 63.7354 71.4916 61.5949 71.7319C60.913 71.8136 60.2245 71.8219 59.5408 71.7565Z" fill="white"/>
<path d="M42.5475 86.5C45.6579 87.1338 48.8533 87.2352 51.9975 86.8" stroke="#737381" stroke-width="4" stroke-linecap="round" stroke-linejoin="round"/>
<path d="M80.4575 87.6001C83.5436 88.4023 86.7719 88.4912 89.8975 87.8601" stroke="#737381" stroke-width="4" stroke-linecap="round" stroke-linejoin="round"/>
</svg>
