<svg width="150" height="150" viewBox="0 0 150 150" fill="none" xmlns="http://www.w3.org/2000/svg">
<path d="M70.5922 110.603C63.9922 109.973 58.4222 109.213 52.5922 106.013C49.6622 104.393 44.5122 100.343 42.5922 97.6131C36.9122 89.5331 34.7622 81.4531 36.6922 72.0731C38.6222 62.6931 44.3222 54.3731 51.4922 48.0731C57.9622 42.3531 68.3922 38.0731 80.4922 39.1731C90.1622 40.0131 97.4922 42.9631 103.252 49.4131C110.559 57.6781 114.383 68.4509 113.922 79.4731C113.823 82.9616 113.094 86.4034 111.772 89.6331C110.336 92.7398 108.351 95.5617 105.912 97.9631C98.9738 104.99 89.8282 109.414 80.0122 110.493C76.8847 110.86 73.7274 110.897 70.5922 110.603Z" fill="#F5FBFF" stroke="#737381" stroke-width="4" stroke-linecap="round" stroke-linejoin="round"/>
<path d="M67.2454 60.9195C65.8062 60.7792 64.5916 60.6098 63.3203 59.8967C62.6813 59.5357 61.5583 58.6332 61.1397 58.0248C59.9011 56.2242 59.4322 54.4236 59.8531 52.3333C60.2739 50.243 61.5169 48.389 63.0804 46.985C64.4913 45.7104 66.7656 44.7566 69.4042 45.0017C71.5129 45.1889 73.1113 45.8463 74.3673 47.2837C75.9607 49.1255 76.7945 51.5261 76.694 53.9824C76.6723 54.7598 76.5135 55.5268 76.2252 56.2465C75.912 56.9388 75.4791 57.5676 74.9473 58.1028C73.4343 59.6687 71.44 60.6546 69.2995 60.895C68.6175 60.9767 67.929 60.9849 67.2454 60.9195Z" fill="white"/>
<path d="M59.5721 70.4632C59.3923 70.6218 59.2518 70.8199 59.1616 71.042C59.0714 71.2641 59.0339 71.5041 59.0521 71.7432C59.0822 71.9803 59.2034 72.1964 59.39 72.3457C59.5767 72.495 59.8141 72.5658 60.0521 72.5432C60.1816 72.5102 60.3032 72.4517 60.4097 72.3709C60.5162 72.2902 60.6054 72.189 60.6721 72.0732C60.8015 71.8792 60.8706 71.6513 60.8706 71.4182C60.8706 71.185 60.8015 70.9571 60.6721 70.7632C60.6054 70.67 60.5193 70.5925 60.4197 70.5359C60.3201 70.4793 60.2094 70.4451 60.0952 70.4356C59.9811 70.4261 59.8662 70.4415 59.7586 70.4808C59.651 70.5201 59.5532 70.5823 59.4721 70.6632" stroke="#737381" stroke-width="4" stroke-linecap="round" stroke-linejoin="round"/>
<path d="M88.3721 71.9632C88.1959 72.0934 88.0761 72.286 88.0371 72.5016C87.998 72.7171 88.0428 72.9395 88.1621 73.1232C88.2265 73.2224 88.3113 73.3068 88.4109 73.3706C88.5104 73.4343 88.6225 73.4761 88.7396 73.493C88.8566 73.51 88.9759 73.5017 89.0895 73.4688C89.2031 73.4359 89.3084 73.3791 89.3982 73.3021C89.4881 73.2252 89.5604 73.13 89.6105 73.0229C89.6605 72.9157 89.6871 72.7991 89.6884 72.6808C89.6897 72.5626 89.6658 72.4454 89.6181 72.3371C89.5705 72.2289 89.5002 72.1321 89.4121 72.0532C89.3181 71.9765 89.2083 71.9214 89.0906 71.8917C88.973 71.862 88.8502 71.8585 88.7311 71.8813C88.6119 71.9042 88.4992 71.953 88.4009 72.0241C88.3026 72.0953 88.2211 72.1871 88.1621 72.2932" stroke="#737381" stroke-width="4" stroke-linecap="round" stroke-linejoin="round"/>
<path d="M67.8721 90.8632C67.8704 91.8734 68.2134 92.8541 68.8442 93.6431C69.4751 94.4322 70.3562 94.9825 71.3421 95.2032C72.0021 95.2705 72.6686 95.1775 73.2849 94.932C73.9012 94.6865 74.4491 94.2959 74.8821 93.7932C75.7442 92.7681 76.2185 91.4726 76.2221 90.1332C76.3721 85.0932 67.7021 84.6132 67.8721 90.8632Z" fill="#F2D1DB" stroke="#D78282" stroke-width="4" stroke-linecap="round" stroke-linejoin="round"/>
</svg>
