<svg width="150" height="150" viewBox="0 0 150 150" fill="none" xmlns="http://www.w3.org/2000/svg">
<path d="M52.4399 38.1613C46.2009 39.8619 40.5202 43.1765 35.9699 47.7713C27.8399 55.4713 24.7999 64.1213 22.8199 69.9813C20.5191 77.3765 19.6137 85.135 20.1499 92.8613C20.8123 96.9996 22.4698 100.915 24.9799 104.271C31.4299 112.611 42.3499 111.381 73.2399 111.721C103.17 112.051 117.75 113.501 124.63 105.051C127.027 101.961 128.763 98.411 129.73 94.6213C130.949 89.968 130.58 85.0407 128.68 80.6213C127.04 77.0013 122.03 71.8413 118.09 71.3013C118.232 66.6128 117.897 61.922 117.09 57.3013C116.231 52.754 113.96 48.5934 110.6 45.4113C108.816 43.8357 106.811 42.5286 104.65 41.5313C99.8999 39.2213 94.6499 38.8013 89.3599 39.1813C86.7225 39.3782 84.1433 40.056 81.7499 41.1813C79.2899 42.3413 77.6299 43.1313 75.4199 44.4013C73.1296 41.6282 70.1548 39.5013 66.7899 38.2313C61.0199 36.0413 55.9599 37.2613 52.4399 38.1613Z" fill="white" stroke="#737381" stroke-width="4" stroke-linecap="round" stroke-linejoin="round"/>
<path d="M46.7498 72.2712C46.5259 72.3402 46.3224 72.4635 46.1577 72.6301C45.9929 72.7968 45.872 73.0017 45.8057 73.2264C45.7393 73.4512 45.7296 73.6889 45.7775 73.9183C45.8253 74.1477 45.9292 74.3617 46.0799 74.5412C46.2584 74.691 46.4724 74.7923 46.7013 74.8356C46.9303 74.8788 47.1665 74.8625 47.3874 74.7883C47.6082 74.714 47.8063 74.5842 47.9626 74.4114C48.1189 74.2385 48.2281 74.0284 48.2798 73.8012C48.2793 73.5782 48.2213 73.359 48.1115 73.1648C48.0017 72.9705 47.8438 72.8079 47.653 72.6923C47.4621 72.5768 47.2448 72.5124 47.0218 72.5052C46.7988 72.498 46.5777 72.5483 46.3798 72.6512" stroke="#737381" stroke-width="4" stroke-linecap="round" stroke-linejoin="round"/>
<path d="M86.2099 73.7712C86.1013 73.8252 86.0085 73.9066 85.9408 74.0073C85.8731 74.108 85.8327 74.2246 85.8236 74.3456C85.8145 74.4666 85.8371 74.5879 85.889 74.6976C85.941 74.8073 86.0205 74.9016 86.1199 74.9712C86.3438 75.0899 86.6021 75.1269 86.8503 75.0758C87.0985 75.0247 87.3211 74.8887 87.4799 74.6912C87.5882 74.5667 87.6708 74.4221 87.7229 74.2655C87.775 74.109 87.7956 73.9437 87.7835 73.7791C87.7715 73.6146 87.7269 73.4541 87.6525 73.3068C87.5781 73.1596 87.4752 73.0285 87.3499 72.9212C86.8099 72.5412 85.8699 73.0212 85.9699 73.6712" stroke="#737381" stroke-width="4" stroke-linecap="round" stroke-linejoin="round"/>
<path d="M63.8098 93.6911C64.6793 94.0748 65.6261 94.251 66.5755 94.2059C67.5248 94.1608 68.4506 93.8956 69.2798 93.4312" stroke="#D78282" stroke-width="4" stroke-linecap="round" stroke-linejoin="round"/>
</svg>
