<svg width="150" height="150" viewBox="0 0 150 150" fill="none" xmlns="http://www.w3.org/2000/svg">
<path d="M33.3172 50.0432C31.0702 54.8963 30.0831 60.2376 30.4472 65.5732C28.1491 66.895 26.1933 68.7378 24.7372 70.9532C22.5596 74.5085 21.6404 78.6926 22.1272 82.8332C22.6218 87.456 23.8824 91.9643 25.8572 96.1732C24.8572 97.2732 22.0672 100.633 22.3972 105.003C22.7375 107.87 24.1053 110.517 26.2472 112.453C33.2472 119.453 37.5972 118.143 74.7072 118.143C105.027 118.143 119.707 119.433 125.517 110.493C127.214 107.641 128.3 104.467 128.707 101.173C128.827 99.9032 129.787 90.0332 124.187 85.1732C122.857 84.0232 121.097 83.1132 121.117 81.5732C121.117 80.3332 122.307 79.8432 123.747 78.0932C124.457 77.2332 126.867 74.3132 126.687 71.0332C126.527 68.0332 124.267 65.5932 122.027 64.3632C120.786 63.7216 119.421 63.3547 118.025 63.2874C116.629 63.2201 115.235 63.454 113.937 63.9732C113.987 63.4532 114.667 53.7632 106.677 47.8832C98.6872 42.0032 89.5372 45.5932 89.0772 45.7832C85.1774 40.6429 79.9301 36.6832 73.9172 34.3432C69.8272 32.7832 59.2872 29.6732 48.2172 34.9332C41.6693 38.1186 36.4106 43.4514 33.3172 50.0432Z" fill="white" stroke="#737381" stroke-width="4" stroke-linecap="round" stroke-linejoin="round"/>
<path d="M57.2072 71.1531C56.9283 71.5118 56.7551 71.9412 56.7072 72.3931C56.7072 72.8431 57.0871 73.3331 57.5371 73.2531C57.7752 73.1823 57.9784 73.0254 58.1071 72.8131C58.2402 72.6422 58.3237 72.4379 58.3484 72.2227C58.3731 72.0075 58.338 71.7897 58.2471 71.5931C58.1943 71.5022 58.1206 71.4252 58.032 71.3686C57.9434 71.3119 57.8426 71.2773 57.7379 71.2675C57.6332 71.2577 57.5277 71.2731 57.4302 71.3123C57.3326 71.3516 57.2459 71.4135 57.1771 71.4931" stroke="#737381" stroke-width="4" stroke-linecap="round" stroke-linejoin="round"/>
<path d="M85.3971 63.4332C85.3081 63.4754 85.2329 63.5419 85.1803 63.6251C85.1276 63.7083 85.0996 63.8048 85.0996 63.9032C85.0996 64.0017 85.1276 64.0982 85.1803 64.1814C85.2329 64.2646 85.3081 64.3311 85.3971 64.3732C85.6022 64.4681 85.8316 64.497 86.0538 64.4558C86.2759 64.4146 86.4798 64.3054 86.6371 64.1432C86.7425 63.9946 86.794 63.8145 86.7831 63.6327C86.7721 63.4509 86.6995 63.2782 86.5771 63.1432C86.461 63.0149 86.3163 62.9154 86.1548 62.8529C85.9934 62.7904 85.8195 62.7666 85.6471 62.7832C85.2871 62.7832 84.9971 63.1432 85.1371 63.4032" stroke="#737381" stroke-width="4" stroke-linecap="round" stroke-linejoin="round"/>
<path d="M74.9371 82.183C75.5233 82.4513 76.175 82.5431 76.8125 82.4472C77.45 82.3513 78.0458 82.0719 78.5271 81.643C78.9203 81.1977 79.2044 80.6671 79.3571 80.093C79.9211 78.1947 79.7534 76.1539 78.8871 74.373C78.9471 74.503 71.5671 77.0331 71.5671 77.0331C71.5671 77.0331 73.2071 81.473 74.9371 82.183Z" fill="#F2D1DB" stroke="#D78282" stroke-width="4" stroke-linecap="round" stroke-linejoin="round"/>
</svg>
