<svg width="150" height="150" viewBox="0 0 150 150" fill="none" xmlns="http://www.w3.org/2000/svg">
<path d="M142.74 77.1918C138.164 63.0655 127.628 55.7902 123.967 53.4742C122.974 39.7966 114.614 28.1924 103.107 24.3729C89.7694 19.8986 74.646 26.6161 67.5141 40.803C56.6431 34.619 42.3792 37.1653 33.2829 46.1504C25.4701 53.8501 23.5504 64.8237 24.6554 76.0641C24.6675 76.192 24.6386 76.3205 24.5736 76.4279C24.5085 76.5353 24.4113 76.6149 24.2984 76.6535C24.1855 76.692 24.0639 76.6869 23.954 76.6392C23.8441 76.5914 23.7528 76.5039 23.6955 76.3915C21.8316 72.5598 17.8917 70.0741 13.6505 69.3344C10.4919 68.7766 6.74175 71.7595 5.50287 75.2638C3.76173 80.114 6.61896 86.9286 12.8804 89.669C9.60001 93.1842 7.52799 97.8148 7.00966 102.789C6.0498 113.92 14.2644 121.571 15.2019 122.42C15.7154 122.882 16.2561 123.307 16.8203 123.693C20.1686 125.779 26.1956 125.827 51.1853 125.815C73.3625 125.815 73.5076 125.815 80.2043 125.815C88.3965 125.888 94.591 126.021 104.647 125.997C120.217 125.997 128.086 125.997 130.563 124.481C142.762 117.182 148.522 94.9557 142.74 77.1918Z" fill="white" stroke="#737381" stroke-width="4" stroke-linecap="round" stroke-linejoin="round"/>
<path d="M66.3174 75.6993L66.189 77.2159C66.3677 77.3981 66.6012 77.5167 66.8537 77.5535C67.1062 77.5904 67.3638 77.5434 67.5871 77.4198C67.8103 77.2962 67.9869 77.1028 68.0897 76.8693C68.1926 76.6358 68.2161 76.375 68.1565 76.1268C68.097 75.8787 67.9577 75.6569 67.76 75.4955C67.5624 75.3341 67.3173 75.2419 67.0623 75.2331C66.8072 75.2243 66.5563 75.2994 66.3481 75.4468C66.1398 75.5942 65.9856 75.8058 65.9091 76.0493" stroke="#737381" stroke-width="4" stroke-linecap="round" stroke-linejoin="round"/>
<path d="M108.189 80.5292C107.96 81.0743 107.895 81.6744 108.002 82.2559H109.239C109.35 82.0076 109.394 81.7344 109.365 81.4639C109.336 81.1933 109.236 80.9353 109.076 80.7159C108.702 80.3192 107.909 80.4475 107.816 80.9842" stroke="#737381" stroke-width="4" stroke-linecap="round" stroke-linejoin="round"/>
<path d="M80.8189 99.8145C81.7539 100.766 82.992 101.36 84.3189 101.494C85.7178 101.643 87.1213 101.26 88.2506 100.421C89.1543 99.576 89.7734 98.471 90.0221 97.2588C90.2708 96.0467 90.1369 94.7872 89.6389 93.6545C87.5156 93.4911 80.5623 92.4878 80.5623 92.4878C79.0806 95.0545 79.2089 98.0528 80.8189 99.8145Z" fill="#F2D1DB" stroke="#D78282" stroke-width="4" stroke-linecap="round" stroke-linejoin="round"/>
</svg>
