<svg width="150" height="150" viewBox="0 0 150 150" fill="none" xmlns="http://www.w3.org/2000/svg">
<path d="M142.74 77.1918C138.164 63.0655 127.628 55.7902 123.967 53.4742C122.974 39.7966 114.614 28.1924 103.107 24.3729C89.7694 19.8986 74.646 26.6161 67.5141 40.803C56.6431 34.619 42.3792 37.1653 33.2829 46.1504C25.4701 53.8501 23.5504 64.8237 24.6554 76.0641C24.6675 76.192 24.6386 76.3205 24.5736 76.4279C24.5085 76.5353 24.4113 76.6149 24.2984 76.6535C24.1855 76.692 24.0639 76.6869 23.954 76.6392C23.8441 76.5914 23.7528 76.5039 23.6955 76.3915C21.8316 72.5598 17.8917 70.0741 13.6505 69.3344C10.4919 68.7766 6.74175 71.7595 5.50287 75.2638C3.76173 80.114 6.61896 86.9286 12.8804 89.669C9.60001 93.1842 7.52799 97.8148 7.00966 102.789C6.0498 113.92 14.2644 121.571 15.2019 122.42C15.7154 122.882 16.2561 123.307 16.8203 123.693C20.1686 125.779 26.1956 125.827 51.1853 125.815C73.3625 125.815 73.5076 125.815 80.2043 125.815C88.3965 125.888 94.591 126.021 104.647 125.997C120.217 125.997 128.086 125.997 130.563 124.481C142.762 117.182 148.522 94.9557 142.74 77.1918Z" fill="#D6D6DD" stroke="#D6D6DD" stroke-width="4" stroke-linecap="round" stroke-linejoin="round"/>
<path d="M46.6895 78.7891V100H41.0938V83.9453H40.9766L36.2891 86.7578V81.9824L41.5332 78.7891H46.6895ZM60.1953 100.293C54.4824 100.293 50.9375 96.3379 50.9375 89.3945C50.9375 82.4219 54.4824 78.4961 60.1953 78.4961C65.9082 78.4961 69.4531 82.4512 69.4531 89.3945C69.4531 96.3672 65.9082 100.293 60.1953 100.293ZM60.1953 95.8105C62.2461 95.7812 63.6816 93.9062 63.6816 89.3945C63.6816 85 62.2461 82.9785 60.1953 82.9785C58.1445 82.9785 56.7383 85 56.709 89.3945C56.709 93.9062 58.1445 95.7812 60.1953 95.8105ZM81.2891 100.293C75.5762 100.293 72.0312 96.3379 72.0312 89.3945C72.0312 82.4219 75.5762 78.4961 81.2891 78.4961C87.002 78.4961 90.5469 82.4512 90.5469 89.3945C90.5469 96.3672 87.002 100.293 81.2891 100.293ZM81.2891 95.8105C83.3398 95.7812 84.7754 93.9062 84.7754 89.3945C84.7754 85 83.3398 82.9785 81.2891 82.9785C79.2383 82.9785 77.832 85 77.8027 89.3945C77.8027 93.9062 79.2383 95.7812 81.2891 95.8105ZM99.541 89.8926C96.1133 89.8926 94.2676 87.4023 94.2676 83.8574C94.2676 80.2832 96.2012 77.793 99.541 77.793C103.027 77.793 104.873 80.2832 104.902 83.8574C104.873 87.4609 102.998 89.8926 99.541 89.8926ZM99.541 86.7578C100.742 86.7578 101.328 85.6152 101.328 83.8574C101.328 82.1289 100.771 80.9277 99.541 80.9277C98.4277 80.9277 97.8418 82.1875 97.8418 83.8574C97.8418 85.6152 98.4863 86.7578 99.541 86.7578ZM114.805 100.967C111.377 100.967 109.531 98.4766 109.531 94.9316C109.531 91.3574 111.465 88.8672 114.805 88.8672C118.291 88.8672 120.137 91.3574 120.137 94.9316C120.137 98.5352 118.232 100.967 114.805 100.967ZM114.805 97.832C115.977 97.832 116.562 96.6895 116.592 94.9316C116.562 93.2031 116.035 92.002 114.805 92.0312C113.691 92.002 113.076 93.2617 113.076 94.9316C113.076 96.6895 113.721 97.832 114.805 97.832ZM97.9297 100L112.52 78.7891H116.416L101.826 100H97.9297Z" fill="white"/>
</svg>
