<svg width="24" height="24" viewBox="0 0 24 24" fill="none" xmlns="http://www.w3.org/2000/svg">
<path d="M8.30597 18.695C8.50209 18.8908 8.76787 19.0007 9.04498 19.0007C9.32208 19.0007 9.58786 18.8908 9.78398 18.695L15.694 12.791C15.922 12.563 16.024 12.255 15.996 11.957C15.996 11.687 15.895 11.418 15.69 11.213L9.78297 5.306C9.68599 5.20902 9.57086 5.13209 9.44415 5.0796C9.31744 5.02712 9.18163 5.0001 9.04447 5.0001C8.90732 5.0001 8.77151 5.02712 8.6448 5.0796C8.51809 5.13209 8.40296 5.20902 8.30597 5.306C8.20899 5.40298 8.13206 5.51811 8.07958 5.64483C8.02709 5.77154 8.00008 5.90735 8.00008 6.0445C8.00008 6.18165 8.02709 6.31746 8.07958 6.44417C8.13206 6.57088 8.20899 6.68602 8.30597 6.783L13.526 12.003L8.30597 17.219C8.20898 17.3159 8.13203 17.4309 8.07952 17.5575C8.02702 17.6842 8 17.8199 8 17.957C8 18.0941 8.02702 18.2298 8.07952 18.3565C8.13203 18.4831 8.20898 18.5981 8.30597 18.695Z" fill="#D6D6DD"/>
</svg>
